<?xml version="1.0" encoding="utf-8"?>
<!-- Generator: $$$/GeneralStr/196=Adobe Illustrator 27.6.0, SVG Export Plug-In . SVG Version: 6.00 Build 0)  -->
<svg version="1.1" id="Layer_1" xmlns="http://www.w3.org/2000/svg" xmlns:xlink="http://www.w3.org/1999/xlink" x="0px" y="0px"
	 viewBox="0 0 500 500" style="enable-background:new 0 0 500 500;" xml:space="preserve">
<style type="text/css">
	
		.st0{clip-path:url(#SVGID_00000011025280532377296510000003458248237450163087_);fill-rule:evenodd;clip-rule:evenodd;fill:#E2B101;}
	.st1{fill-rule:evenodd;clip-rule:evenodd;fill:#FFFFFF;}
	.st2{fill:#565656;}
</style>
<g>
	<defs>
		<path id="SVGID_1_" d="M250,55.2c107.6,0,194.9,87.3,194.9,194.9S357.6,445.1,250,445.1S55.1,357.8,55.1,250.1
			S142.4,55.2,250,55.2L250,55.2z"/>
	</defs>
	<clipPath id="SVGID_00000042713631481616589770000013477085587872330667_">
		<use xlink:href="#SVGID_1_"  style="overflow:visible;"/>
	</clipPath>
	
		<path style="clip-path:url(#SVGID_00000042713631481616589770000013477085587872330667_);fill-rule:evenodd;clip-rule:evenodd;fill:#E2B101;" d="
		M250,55.4c107.6,0,194.9,87.3,194.9,194.9S357.6,445.2,250,445.2S55.1,357.9,55.1,250.3S142.4,55.4,250,55.4L250,55.4z"/>
</g>
<path class="st1" d="M250,90.6c88.1,0,159.5,71.4,159.5,159.5S338.1,409.7,250,409.7S90.5,338.3,90.5,250.1S161.9,90.6,250,90.6
	L250,90.6z"/>
<path class="st2" d="M299.5,341.2h-59.8c-1.2,0-2.2-1-2.2-2.2V209h-28.2c-1.2,0-2.2-1-2.2-2.2v-45.1c0-1.2,1-2.2,2.2-2.2h90.2
	c1.2,0,2.2,1,2.2,2.2v177.3C301.8,340.2,300.8,341.2,299.5,341.2z M242,336.7h55.3V163.9h-85.7v40.6h28.2c1.2,0,2.2,1,2.2,2.2V336.7
	z"/>
<polygon points="285,153.9 285,331.1 225.3,331.1 225.3,198.9 194.9,198.9 194.9,153.9 285,153.9 "/>
<path d="M285,333.4h-59.8c-1.2,0-2.2-1-2.2-2.2v-130h-28.2c-1.2,0-2.2-1-2.2-2.2v-45.1c0-1.2,1-2.2,2.2-2.2H285c1.2,0,2.2,1,2.2,2.2
	v177.3C287.3,332.4,286.3,333.4,285,333.4z M227.5,328.9h55.3V156.1h-85.7v40.6h28.2c1.2,0,2.2,1,2.2,2.2V328.9z"/>
</svg>
