<?xml version="1.0" encoding="utf-8"?>
<!-- Generator: Adobe Illustrator 22.1.0, SVG Export Plug-In . SVG Version: 6.00 Build 0)  -->
<svg version="1.1" id="Layer_1" xmlns="http://www.w3.org/2000/svg" xmlns:xlink="http://www.w3.org/1999/xlink" x="0px" y="0px"
	 viewBox="0 0 500 500" style="enable-background:new 0 0 500 500;" xml:space="preserve">
<style type="text/css">
	.st0{fill:none;stroke:#FFE000;stroke-width:3.9987;stroke-miterlimit:10;}
	.st1{fill:#FFE000;}
	.st2{fill:#5B530A;}
</style>
<path class="st0" d="M318.5,441.3c-6.7,0-13.4-2.4-19.3-6.9l-36.5-27.7c-1-0.7-3-1.5-5.7-1.5c-2.7,0-4.7,0.8-5.7,1.5l-36.5,27.7
	c-5.9,4.5-12.6,6.9-19.3,6.9c-13.6,0-24.6-9.4-27.9-24.1l-10.2-44.7c-0.7-3.3-5.3-7.1-8.7-7.3L103,363c-11.1-0.5-20.3-5.8-25.3-14.4
	c-5-8.6-4.9-19.2,0.2-29.1l20.9-40.8c1.5-3,0.5-8.8-2-11.1l-33.6-31.2c-8.2-7.6-11.9-17.5-10.1-27.3c1.7-9.8,8.6-17.9,18.9-22.2
	l42.2-17.8c3.1-1.3,6.1-6.4,5.7-9.8l-5.7-45.5c-1.2-9.5,1.3-18.2,6.9-24.6c5.3-6,12.9-9.3,21.3-9.3c3.4,0,6.9,0.5,10.3,1.6
	l43.8,13.5c0.4,0.1,1,0.2,1.9,0.2l0,0c3.8,0,7.5-2.1,8.8-4.1l24.8-38.5c6-9.4,15.2-14.7,25.1-14.7c9.9,0,19.1,5.4,25.1,14.7
	L307,91.2c1.3,2,5,4.1,8.8,4.1c0.7,0,1.4-0.1,1.9-0.2l43.8-13.5c3.5-1.1,6.9-1.6,10.3-1.6c8.4,0,16,3.3,21.3,9.3
	c5.6,6.4,8.1,15.1,6.9,24.6l-5.7,45.5c-0.4,3.4,2.5,8.5,5.7,9.8l42.2,17.8c10.3,4.3,17.1,12.4,18.9,22.2c1.7,9.8-2,19.7-10.1,27.3
	l-33.6,31.2c-2.5,2.3-3.5,8.1-2,11.1l20.9,40.8c5.1,9.9,5.2,20.5,0.2,29.1c-5,8.6-14.2,13.9-25.3,14.4l-45.8,2.3
	c-3.4,0.2-7.9,4-8.7,7.3l-10.2,44.7C343.1,431.8,332.1,441.3,318.5,441.3z"/>
<path class="st1" d="M246.2,61.9c6-9.2,15.7-9.2,21.7,0l24.8,38.5c6,9.2,19.4,14.1,29.9,10.9l43.8-13.5c10.5-3.2,18,3,16.6,13.9
	l-5.7,45.5c-1.4,10.9,5.8,23.3,15.9,27.6l42.2,17.8c10.1,4.3,11.8,13.9,3.8,21.3l-33.6,31.2c-8.1,7.5-10.6,21.6-5.5,31.4l20.9,40.8
	c5,9.8,0.1,18.2-10.8,18.8l-45.8,2.3c-11,0.5-22,9.8-24.4,20.5l-10.2,44.7c-2.4,10.7-11.6,14.1-20.4,7.4l-36.5-27.7
	c-8.8-6.6-23.1-6.6-31.9,0l-36.5,27.7c-8.8,6.6-17.9,3.3-20.4-7.4L174,368.8c-2.4-10.7-13.4-19.9-24.4-20.5l-45.8-2.3
	c-11-0.5-15.9-9-10.8-18.8l20.9-40.8c5-9.8,2.5-23.9-5.5-31.4l-33.6-31.2c-8.1-7.5-6.4-17.1,3.8-21.3l42.2-17.8
	c10.1-4.3,17.3-16.7,15.9-27.6l-5.7-45.5c-1.4-10.9,6.1-17.2,16.6-13.9l43.8,13.5c10.5,3.2,24-1.7,29.9-10.9L246.2,61.9z"/>
<g>
	<path class="st2" d="M214.6,209h-12.3c-2.1,0-3.8,1.7-3.8,3.9l0.7,28.5l-21.7-29.8c-0.9-1.2-2.2-2.6-4.1-2.6h-11.5
		c-2.1,0-3.7,1.7-3.7,3.8v58c0,2.1,1.7,3.8,3.7,3.8h12.3c2.1,0,3.8-1.7,3.8-3.9l-0.7-28.2l21.8,30c1,1.3,2.2,2,3.6,2h11.8
		c2.1,0,3.7-1.7,3.7-3.8v-58C218.3,210.7,216.6,209,214.6,209z"/>
	<path class="st2" d="M277.9,209h-42.7c-2.1,0-3.7,1.7-3.7,3.8v58c0,2.1,1.7,3.8,3.7,3.8h42.7c2.1,0,3.8-1.7,3.8-3.7v-10.7
		c0-2.1-1.7-3.8-3.8-3.8h-25.7v-5.7h16.4c2.1,0,3.8-1.7,3.8-3.7v-10.7c0-2.1-1.7-3.8-3.8-3.8h-16.4v-5.1h25.7c2.1,0,3.8-1.7,3.8-3.7
		v-10.8C281.7,210.8,280,209,277.9,209z"/>
	<path class="st2" d="M368.1,210.3c-0.7-0.8-1.7-1.3-2.9-1.3h-12.1c-2,0-3.5,1.2-3.8,3.1l-5.3,25.3l-6.9-24.8
		c-0.4-3-2.4-3.6-4.1-3.6h-7.6c-2.2,0-3.7,1.4-3.9,3.3l-7.1,25l-4.9-25.1c-0.2-1.6-1.6-3.2-3.7-3.2h-12.9c-1.1,0-2.1,0.4-2.8,1.2
		c-0.7,0.9-1.1,2-0.8,3.5l13.1,57.6c0.4,2,1.9,3.3,3.8,3.3h12c1.9,0,3.4-1.3,3.7-3.1l7.1-24.8l6.8,24.6c0.4,2,1.9,3.3,3.8,3.3h12
		c1.8,0,3.4-1.4,3.8-3.2l13.7-57.7C369.2,212,368.6,210.9,368.1,210.3z"/>
</g>
</svg>
